<svg width="43" height="37" viewBox="0 0 43 37" fill="none" xmlns="http://www.w3.org/2000/svg">
<g id="broom">
<path id="Vector 13" d="M12 5C12 5 12.2828 6.40159 12.8182 6.95652C13.4577 7.61931 15 7.6087 15 7.6087C15 7.6087 13.4492 7.59295 12.8182 8.26087C12.3517 8.75458 12 10 12 10C12 10 11.448 8.74411 10.9091 8.26087C10.2762 7.69333 9 7.6087 9 7.6087C9 7.6087 10.2781 7.5254 10.9091 6.95652C11.5118 6.4131 12 5 12 5Z" stroke="#001965" stroke-width="2" stroke-linecap="round" stroke-linejoin="round"/>
<path id="Vector 21" d="M39 15C39 15 39.2828 16.4016 39.8182 16.9565C40.4577 17.6193 42 17.6087 42 17.6087C42 17.6087 40.4492 17.593 39.8182 18.2609C39.3517 18.7546 39 20 39 20C39 20 38.448 18.7441 37.9091 18.2609C37.2762 17.6933 36 17.6087 36 17.6087C36 17.6087 37.2781 17.5254 37.9091 16.9565C38.5118 16.4131 39 15 39 15Z" stroke="#001965" stroke-width="2" stroke-linecap="round" stroke-linejoin="round"/>
<path id="Vector 22" d="M34.9091 24.5652C34.6414 24.1213 34.5 23 34.5 23C34.5 23 34.2559 24.1305 33.9545 24.5652C33.6391 25.0203 33 25.087 33 25.087C33 25.087 33.6381 25.1547 33.9545 25.6087C34.224 25.9953 34.5 27 34.5 27C34.5 27 34.6759 26.0037 34.9091 25.6087C35.2246 25.0744 36 25.087 36 25.087C36 25.087 35.2288 25.0954 34.9091 24.5652Z" stroke="#001965" stroke-width="2" stroke-linecap="round" stroke-linejoin="round"/>
<path id="Vector 10" d="M11.2924 19.5314C14.011 22.3005 15.5353 23.853 18.2539 26.622M11.2924 19.5314C8.37951 19.5314 1.84446 21.3613 1.09862 21.8188C0.352784 22.2763 4.0821 26.622 4.0821 26.622M11.2924 19.5314C11.351 19.1356 11.4806 18.8972 11.7896 18.6165C12.1617 18.2785 12.5355 18.1592 13.0327 18.3879C13.53 18.6165 19.2484 24.3346 19.4971 24.7922C19.7457 25.2497 19.514 25.5514 19.2484 25.9358C18.9881 26.3128 18.7202 26.4976 18.2539 26.622M18.2539 26.622C17.7566 30.2818 15.519 35.9999 14.7731 36C14.0272 36.0001 10.5464 33.2553 10.5464 33.2553M4.0821 26.622L9.30337 23.6486M4.0821 26.622L7.31426 30.2818M7.31426 30.2818L11.0438 27.3082M7.31426 30.2818L10.5464 33.2553M10.5464 33.2553C10.5464 33.2553 13.814 29.1841 15.2704 27.3082M15.2704 20.435C15.2704 20.435 37.202 1.87527 38.3654 1.23317C39.5289 0.591069 40.4667 1.36475 39.7503 2.46312C39.0339 3.56149 17.3552 22.505 17.3552 22.505L15.2704 20.435Z" stroke="#001965" stroke-width="2" stroke-linecap="round"/>
</g>
</svg>
