<svg width="62" height="65" viewBox="0 0 62 65" fill="none" xmlns="http://www.w3.org/2000/svg">
<circle cx="30.5" cy="28.5" r="27.5" fill="#F5F5F5"/>
<path d="M40 15C40 15 39.7172 16.4016 39.1818 16.9565C38.5423 17.6193 37 17.6087 37 17.6087C37 17.6087 38.5508 17.593 39.1818 18.2609C39.6483 18.7546 40 20 40 20C40 20 40.552 18.7441 41.0909 18.2609C41.7238 17.6933 43 17.6087 43 17.6087C43 17.6087 41.7219 17.5254 41.0909 16.9565C40.4882 16.4131 40 15 40 15Z" stroke="#0F0F0F" stroke-width="2" stroke-linecap="round" stroke-linejoin="round"/>
<path d="M13 25C13 25 12.7172 26.4016 12.1818 26.9565C11.5423 27.6193 10 27.6087 10 27.6087C10 27.6087 11.5508 27.593 12.1818 28.2609C12.6483 28.7546 13 30 13 30C13 30 13.552 28.7441 14.0909 28.2609C14.7238 27.6933 16 27.6087 16 27.6087C16 27.6087 14.7219 27.5254 14.0909 26.9565C13.4882 26.4131 13 25 13 25Z" stroke="#0F0F0F" stroke-width="2" stroke-linecap="round" stroke-linejoin="round"/>
<path d="M17.0909 34.5652C17.3586 34.1213 17.5 33 17.5 33C17.5 33 17.7441 34.1305 18.0455 34.5652C18.3609 35.0203 19 35.087 19 35.087C19 35.087 18.3619 35.1547 18.0455 35.6087C17.776 35.9953 17.5 37 17.5 37C17.5 37 17.3241 36.0037 17.0909 35.6087C16.7754 35.0744 16 35.087 16 35.087C16 35.087 16.7712 35.0954 17.0909 34.5652Z" stroke="#0F0F0F" stroke-width="2" stroke-linecap="round" stroke-linejoin="round"/>
<path d="M40.7076 29.5314C37.989 32.3005 36.4647 33.853 33.7461 36.622M40.7076 29.5314C43.6205 29.5314 50.1555 31.3613 50.9014 31.8188C51.6472 32.2763 47.9179 36.622 47.9179 36.622M40.7076 29.5314C40.649 29.1356 40.5194 28.8972 40.2104 28.6165C39.8383 28.2785 39.4645 28.1592 38.9673 28.3879C38.47 28.6165 32.7516 34.3346 32.5029 34.7922C32.2543 35.2497 32.486 35.5514 32.7516 35.9358C33.0119 36.3128 33.2798 36.4976 33.7461 36.622M33.7461 36.622C34.2434 40.2818 36.481 45.9999 37.2269 46C37.9728 46.0001 41.4536 43.2553 41.4536 43.2553M47.9179 36.622L42.6966 33.6486M47.9179 36.622L44.6857 40.2818M44.6857 40.2818L40.9562 37.3082M44.6857 40.2818L41.4536 43.2553M41.4536 43.2553C41.4536 43.2553 38.186 39.1841 36.7296 37.3082M36.7296 30.435C36.7296 30.435 14.798 11.8753 13.6346 11.2332C12.4711 10.5911 11.5333 11.3647 12.2497 12.4631C12.9661 13.5615 34.6448 32.505 34.6448 32.505L36.7296 30.435Z" stroke="#0F0F0F" stroke-width="2" stroke-linecap="round"/>
</svg>
