<svg width="56" height="55" viewBox="0 0 56 55" fill="none" xmlns="http://www.w3.org/2000/svg">
<circle cx="27.553" cy="27.5" r="27.5" fill="#FBFBE9"/>
<path fill-rule="evenodd" clip-rule="evenodd" d="M23.053 14H32.553V16H31.053V28L38.053 37C38.053 37 38.3814 38.5806 38.053 39.5C37.8162 40.163 37.053 41 37.053 41H18.053C18.053 41 17.053 40.4763 17.053 39.5V37C17.053 36.0237 24.553 28 24.553 28V16H23.053V14ZM29.053 16H26.553V28L24.553 31H31.053L29.053 28V16Z" fill="#EAAB00"/>
<path fill-rule="evenodd" clip-rule="evenodd" d="M34.053 19.5V27.5L40.053 36H43.053V22.5H45.053V19.5H34.053ZM41.053 21.5H36.053V25.5H38.553H41.053V21.5Z" fill="#EAAB00"/>
<path fill-rule="evenodd" clip-rule="evenodd" d="M13.053 17.5H20.053V25L21.553 27L15.053 36C10.5934 33.3195 9.64558 31.2974 13.053 26V17.5ZM18.053 20.5H15.053V26L14.553 28.5H18.553L18.053 26V20.5Z" fill="#EAAB00"/>
</svg>
