<svg width="41" height="33" viewBox="0 0 41 33" fill="none" xmlns="http://www.w3.org/2000/svg">
<g id="mop">
<path id="Vector 14" d="M20.7697 20.9676C20.7697 20.9676 36.6718 2.30241 37.7148 1.40289C38.7577 0.503377 40.6113 1.17802 39.8003 2.75218C38.9893 4.32634 23.116 22.5418 23.116 22.5418M20.7697 20.9676L23.116 22.5418M20.7697 20.9676C19.9937 20.8932 19.3979 20.8715 18.9449 20.907M23.116 22.5418C24.155 24.213 24.3138 25.0854 22.8553 25.6901M17.6415 21.8672L22.8553 25.6901M17.6415 21.8672C8.77779 21.4174 8.25653 29.2882 13.2098 31.7619M17.6415 21.8672C17.6968 21.2859 18.0284 20.979 18.9449 20.907M22.8553 25.6901C22.8553 25.6901 21.3224 26.7891 21.5518 27.714C21.9239 29.2138 24.941 28.6136 25.9838 28.6136C27.0265 28.6136 30.4153 29.1303 30.4153 30.8624C30.4153 32.6077 25.4622 31.7619 21.8125 31.9868C16.8593 31.9868 13.2098 31.7619 13.2098 31.7619M13.2098 31.7619C13.2098 31.7619 5.38901 31.9868 4.60693 31.3122C3.82485 30.6375 3.56415 16.9198 3.56415 16.9198M3.56415 16.9198C3.56415 16.9198 2.52137 16.9198 2.26055 16.9198C1.99972 16.9198 1.99993 15.1207 2 14.8958C2.00008 14.6709 19.4661 14.6709 19.9877 14.8958C20.5092 15.1207 19.9877 16.9198 19.9877 16.9198H18.8408M3.56415 16.9198H18.8408M18.8408 16.9198L18.9449 20.907" stroke="#3F9C35" stroke-width="2" stroke-linecap="round" stroke-linejoin="round"/>
<path id="Vector 15" d="M12.6028 6.13176C11.7991 5.15689 11.7991 3.84311 12.6028 2.86824C13.5573 1.71059 15.4427 1.71059 16.3972 2.86824C17.2009 3.84311 17.2009 5.15689 16.3972 6.13176C15.4427 7.28941 13.5573 7.28941 12.6028 6.13176Z" stroke="#3F9C35" stroke-width="2" stroke-linecap="round" stroke-linejoin="round"/>
<path id="Vector 19" d="M18.1206 2.82635C17.9598 2.63138 17.9598 2.36862 18.1206 2.17365C18.3115 1.94212 18.6885 1.94212 18.8794 2.17365C19.0402 2.36862 19.0402 2.63138 18.8794 2.82635C18.6885 3.05788 18.3115 3.05788 18.1206 2.82635Z" stroke="#3F9C35" stroke-width="2" stroke-linecap="round" stroke-linejoin="round"/>
<path id="Vector 20" d="M1.12056 8.82635C0.959812 8.63138 0.959812 8.36862 1.12056 8.17365C1.31146 7.94212 1.68854 7.94212 1.87944 8.17365C2.04019 8.36862 2.04019 8.63138 1.87944 8.82635C1.68854 9.05788 1.31146 9.05788 1.12056 8.82635Z" stroke="#3F9C35" stroke-width="2" stroke-linecap="round" stroke-linejoin="round"/>
<path id="Vector 17" d="M8.70622 13.5162C8.75655 12.232 9.71992 11.2401 11.0993 11.0522C12.7373 10.829 14.296 12.1148 14.2362 13.6398" stroke="#3F9C35" stroke-width="2" stroke-linecap="round" stroke-linejoin="round"/>
<path id="Vector 18" d="M12 14H13" stroke="#3F9C35" stroke-width="2" stroke-linecap="round" stroke-linejoin="round"/>
<path id="Vector 16" d="M3.74155 10.6273C1.7263 11.4359 2.01422 14 2.01422 14H19C19 14 18.7121 10.3423 15.2574 10.6273C14.3967 10.6983 13.3102 11.0752 11.8026 10.6273C9.88539 10.0578 9.18381 7.78109 7.19631 8.01711C5.20881 8.25314 5.44304 9.94452 3.74155 10.6273Z" stroke="#3F9C35" stroke-width="2" stroke-linecap="round" stroke-linejoin="round"/>
</g>
</svg>
