<svg width="55" height="55" viewBox="0 0 55 55" fill="none" xmlns="http://www.w3.org/2000/svg">
<circle cx="27.5" cy="27.5" r="27.5" fill="#CCD1E0"/>
<path d="M27.7697 31.9676C27.7697 31.9676 43.6718 13.3024 44.7148 12.4029C45.7577 11.5034 47.6113 12.178 46.8003 13.7522C45.9893 15.3263 30.116 33.5418 30.116 33.5418M27.7697 31.9676L30.116 33.5418M27.7697 31.9676C26.9937 31.8932 26.3979 31.8715 25.9449 31.907M30.116 33.5418C31.155 35.213 31.3138 36.0854 29.8553 36.6901M24.6415 32.8672L29.8553 36.6901M24.6415 32.8672C15.7778 32.4174 15.2565 40.2882 20.2098 42.7619M24.6415 32.8672C24.6968 32.2859 25.0284 31.979 25.9449 31.907M29.8553 36.6901C29.8553 36.6901 28.3224 37.7891 28.5518 38.714C28.9239 40.2138 31.941 39.6136 32.9838 39.6136C34.0265 39.6136 37.4153 40.1303 37.4153 41.8624C37.4153 43.6077 32.4622 42.7619 28.8125 42.9868C23.8593 42.9868 20.2098 42.7619 20.2098 42.7619M20.2098 42.7619C20.2098 42.7619 12.389 42.9868 11.6069 42.3122C10.8249 41.6375 10.5641 27.9198 10.5641 27.9198M10.5641 27.9198C10.5641 27.9198 9.52137 27.9198 9.26055 27.9198C8.99972 27.9198 8.99993 26.1207 9 25.8958C9.00008 25.6709 26.4661 25.6709 26.9877 25.8958C27.5092 26.1207 26.9877 27.9198 26.9877 27.9198H25.8408M10.5641 27.9198H25.8408M25.8408 27.9198L25.9449 31.907" stroke="#001965" stroke-width="2" stroke-linecap="round" stroke-linejoin="round"/>
<path d="M19.6028 17.1318C18.7991 16.1569 18.7991 14.8431 19.6028 13.8682C20.5573 12.7106 22.4427 12.7106 23.3972 13.8682C24.2009 14.8431 24.2009 16.1569 23.3972 17.1318C22.4427 18.2894 20.5573 18.2894 19.6028 17.1318Z" stroke="#001965" stroke-width="2" stroke-linecap="round" stroke-linejoin="round"/>
<path d="M25.1206 13.8264C24.9598 13.6314 24.9598 13.3686 25.1206 13.1736C25.3115 12.9421 25.6885 12.9421 25.8794 13.1736C26.0402 13.3686 26.0402 13.6314 25.8794 13.8264C25.6885 14.0579 25.3115 14.0579 25.1206 13.8264Z" stroke="#001965" stroke-width="2" stroke-linecap="round" stroke-linejoin="round"/>
<path d="M8.12056 19.8264C7.95981 19.6314 7.95981 19.3686 8.12056 19.1736C8.31146 18.9421 8.68854 18.9421 8.87944 19.1736C9.04019 19.3686 9.04019 19.6314 8.87944 19.8264C8.68854 20.0579 8.31146 20.0579 8.12056 19.8264Z" stroke="#001965" stroke-width="2" stroke-linecap="round" stroke-linejoin="round"/>
<path d="M15.7062 24.5162C15.7566 23.232 16.7199 22.2401 18.0993 22.0522C19.7373 21.829 21.296 23.1148 21.2362 24.6398" stroke="#001965" stroke-width="2" stroke-linecap="round" stroke-linejoin="round"/>
<path d="M19 25H20" stroke="#001965" stroke-width="2" stroke-linecap="round" stroke-linejoin="round"/>
<path d="M10.7416 21.6273C8.7263 22.4359 9.01422 25 9.01422 25H26C26 25 25.7121 21.3423 22.2574 21.6273C21.3967 21.6983 20.3102 22.0752 18.8026 21.6273C16.8854 21.0578 16.1838 18.7811 14.1963 19.0171C12.2088 19.2531 12.443 20.9445 10.7416 21.6273Z" stroke="#001965" stroke-width="2" stroke-linecap="round" stroke-linejoin="round"/>
</svg>
