<svg width="150" height="106" viewBox="0 0 150 106" fill="none" xmlns="http://www.w3.org/2000/svg">
<path d="M72.7687 105.002V95.2013C72.7687 93.5333 72.7424 90.5243 67.0089 90.5243C64.8363 90.5243 63.3534 90.9474 62.5554 91.2045C61.5866 91.515 61.2705 91.8828 61.2705 92.3689V105.029C61.2705 105.514 61.411 105.568 61.8159 105.568H63.2129C63.609 105.568 63.8139 105.514 63.8139 105.002V93.3625C63.8139 92.7056 64.8919 92.0584 66.8947 92.0584C70.2293 92.0584 70.2293 94.1854 70.2293 95.5205V105.002C70.2293 105.514 70.402 105.568 70.8586 105.568H72.4302C72.7424 105.514 72.7687 105.255 72.7687 105.002Z" fill="white"/>
<path d="M87.8787 98.2753C87.8787 94.8685 86.7899 92.6823 85.1373 91.5771C84.107 90.8658 82.7334 90.5243 81.4184 90.5243C80.115 90.5243 78.7413 90.8658 77.7141 91.5771C76.0595 92.6823 74.9756 94.8685 74.9756 98.2753C74.9756 101.653 76.0595 103.837 77.7141 104.944C78.7413 105.654 80.115 106 81.4184 106C82.7334 106 84.107 105.654 85.1373 104.944C86.7899 103.837 87.8787 101.653 87.8787 98.2753ZM85.2465 98.2753C85.2465 100.946 84.7041 102.669 83.9081 103.414C83.1354 104.153 82.4212 104.35 81.4184 104.35C80.4232 104.35 79.7091 104.153 78.9443 103.414C78.1385 102.669 77.597 100.946 77.597 98.2753C77.597 95.5739 78.1385 93.8506 78.9443 93.1015C79.7091 92.3689 80.4232 92.17 81.4184 92.17C82.4212 92.17 83.1354 92.3689 83.9081 93.1015C84.7041 93.8506 85.2465 95.5739 85.2465 98.2753Z" fill="white"/>
<path d="M98.0503 91.9992C98.0503 90.9745 96.3079 90.5243 94.3411 90.5243C92.7997 90.5243 91.828 90.7766 91.0886 90.9745C90.1149 91.2356 89.7715 91.6547 89.7715 92.1389V105.087C89.7715 105.545 89.9452 105.568 90.3452 105.568H91.7987C92.1422 105.568 92.3158 105.545 92.3158 105.087V93.2228C92.3158 92.4533 92.9148 91.941 93.7694 91.941C95.5996 91.941 95.8806 93.28 96.8542 93.28C97.5117 93.28 98.0503 92.8191 98.0503 91.9992Z" fill="white"/>
<path d="M110.608 104.008V86.1811C110.608 85.6688 110.465 85.6067 110.038 85.6067H108.635C108.157 85.6067 108.097 85.7814 108.097 86.2365V91.3821C107.207 90.9202 106.323 90.6097 104.981 90.6097C100.557 90.6097 98.2803 94.7821 98.2803 98.2753C98.2803 103.449 101.158 106 105.503 106C107.634 106 110.608 104.944 110.608 104.008ZM108.097 103.185C108.097 103.926 106.897 104.318 105.582 104.318C102.817 104.318 100.846 102.021 100.846 98.0773C100.846 94.6385 102.729 92.3378 105.355 92.3378C106.844 92.3378 107.552 92.791 108.097 93.249V103.185Z" fill="white"/>
<path d="M116.799 86.775C116.771 85.926 116.086 85.3515 115.29 85.3515C114.377 85.3515 113.714 85.9793 113.714 86.8604C113.714 87.656 114.291 88.3323 115.253 88.3323C116.231 88.3323 116.824 87.5668 116.799 86.775ZM116.516 105.06V91.4015C116.516 90.9474 116.401 90.863 115.946 90.863H114.463C113.977 90.863 113.977 91.0289 113.977 91.4015V105.06C113.977 105.457 113.977 105.568 114.405 105.568H115.946C116.375 105.568 116.516 105.545 116.516 105.06Z" fill="white"/>
<path d="M141.84 105.255C141.84 105.118 141.756 105.029 141.639 104.882L136.22 97.7629L136.191 97.7319C138.078 96.3433 140.07 94.13 141.278 91.7431C141.412 91.4597 141.436 91.3472 141.436 91.1764C141.436 90.9202 141.293 90.863 140.925 90.863H139.582C139.073 90.863 138.845 90.8387 138.698 91.2889C137.9 93.7264 135.789 96.3433 133.647 97.5883C133.563 97.6504 133.536 97.7319 133.536 97.7629C133.536 97.8211 133.563 97.8755 133.592 97.9065L138.673 105.146C138.962 105.568 139.073 105.568 139.526 105.568H141.467C141.559 105.568 141.84 105.545 141.84 105.255ZM133.132 105.146V85.926C133.132 85.5223 132.937 85.5223 132.587 85.5223H131.081C130.767 85.5223 130.595 85.5795 130.595 85.9793V105.118C130.595 105.514 130.681 105.568 131.081 105.568H132.587C132.991 105.568 133.132 105.568 133.132 105.146Z" fill="white"/>
<path d="M128.59 101.598C128.59 96.8246 121.566 97.565 121.566 94.4134C121.566 93.3344 122.422 92.2243 124.018 92.2243C125.679 92.2243 126.108 93.3072 126.959 93.3072C127.388 93.3072 127.989 93.052 127.989 92.3097C127.989 91.2356 126.133 90.6097 124.164 90.6097C121.566 90.6097 119.289 91.9992 119.289 94.6385C119.289 97.0798 121.027 98.1316 123.109 99.0089C124.767 99.6968 126.303 100.318 126.303 101.881C126.303 103.045 125.361 104.377 123.368 104.377C121.366 104.377 120.793 102.902 119.825 102.902C119.341 102.902 118.738 103.1 118.738 103.837C118.738 105.002 121.027 106 123.337 106C125.905 106 128.59 104.637 128.59 101.598Z" fill="white"/>
<path d="M11.7462 105.002V95.2013C11.7462 93.5333 11.718 90.5243 5.98153 90.5243C3.81182 90.5243 2.32701 90.9474 1.52801 91.2045C0.55829 91.515 0.25 91.8828 0.25 92.3689V105.029C0.25 105.514 0.388511 105.568 0.788508 105.568H2.1865C2.58455 105.568 2.78945 105.514 2.78945 105.002V93.3625C2.78945 92.7056 3.87231 92.0584 5.8674 92.0584C9.20289 92.0584 9.20289 94.1854 9.20289 95.5205V105.002C9.20289 105.514 9.37947 105.568 9.83506 105.568H11.4058C11.718 105.514 11.7462 105.255 11.7462 105.002Z" fill="white"/>
<path d="M26.8512 98.2753C26.8512 94.8685 25.7645 92.6823 24.1119 91.5771C23.0816 90.8658 21.7129 90.5243 20.3968 90.5243C19.0857 90.5243 17.7179 90.8658 16.6896 91.5771C15.035 92.6823 13.9531 94.8685 13.9531 98.2753C13.9531 101.653 15.035 103.837 16.6896 104.944C17.7179 105.654 19.0857 106 20.3968 106C21.7129 106 23.0816 105.654 24.1119 104.944C25.7645 103.837 26.8512 101.653 26.8512 98.2753ZM24.2269 98.2753C24.2269 100.946 23.6826 102.669 22.8836 103.414C22.1119 104.153 21.4007 104.35 20.3968 104.35C19.4027 104.35 18.6886 104.153 17.9149 103.414C17.1189 102.669 16.5774 100.946 16.5774 98.2753C16.5774 95.5739 17.1189 93.8506 17.9149 93.1015C18.6886 92.3689 19.4027 92.17 20.3968 92.17C21.4007 92.17 22.1119 92.3689 22.8836 93.1015C23.6826 93.8506 24.2269 95.5739 24.2269 98.2753Z" fill="white"/>
<path d="M52.9235 98.2753C52.9235 94.8685 51.8397 92.6823 50.1821 91.5771C49.1549 90.8658 47.7881 90.5243 46.472 90.5243C45.1579 90.5243 43.7882 90.8658 42.76 91.5771C41.1083 92.6823 40.0225 94.8685 40.0225 98.2753C40.0225 101.653 41.1083 103.837 42.76 104.944C43.7882 105.654 45.1579 106 46.472 106C47.7881 106 49.1549 105.654 50.1821 104.944C51.8397 103.837 52.9235 101.653 52.9235 98.2753ZM50.3012 98.2753C50.3012 100.946 49.7588 102.669 48.9549 103.414C48.1822 104.153 47.471 104.35 46.472 104.35C45.476 104.35 44.7599 104.153 43.9872 103.414C43.1892 102.669 42.6487 100.946 42.6487 98.2753C42.6487 95.5739 43.1892 93.8506 43.9872 93.1015C44.7599 92.3689 45.476 92.17 46.472 92.17C47.471 92.17 48.1822 92.3689 48.9549 93.1015C49.7588 93.8506 50.3012 95.5739 50.3012 98.2753Z" fill="white"/>
<path d="M39.7863 91.1531C39.7863 90.863 39.558 90.863 39.4146 90.863H37.9893C37.7863 90.8891 37.7317 90.9745 37.6459 91.2618L33.9347 102.075L30.0802 91.32C29.9388 90.9202 29.8822 90.863 29.4529 90.863H27.7154C27.5974 90.863 27.3145 90.863 27.3145 91.2045C27.3145 91.32 27.3642 91.4597 27.4286 91.6033L32.5923 105.118C32.7358 105.457 32.7933 105.545 33.0177 105.568H34.1357C34.4732 105.568 34.5357 105.545 34.6791 105.146L39.6721 91.6033C39.7863 91.2618 39.7863 91.2045 39.7863 91.1531Z" fill="white"/>
<path d="M144.019 81.2453H144.925C145.409 81.2453 146.175 81.2453 146.175 81.9749C146.175 82.7153 145.36 82.7153 144.985 82.7153H144.019V81.2453ZM143.223 85.4681H144.019V83.3945H144.488C145.122 83.3945 145.36 83.639 145.955 84.6986L146.392 85.4681H147.36L146.761 84.521C146.15 83.543 145.902 83.3945 145.619 83.2897V83.2664C146.64 83.2082 147.02 82.4436 147.02 81.9002C147.02 81.5043 146.833 81.155 146.548 80.9221C146.14 80.5728 145.494 80.5728 144.925 80.5728H143.223V85.4681ZM145.177 78.4535C142.669 78.4535 140.597 80.4678 140.597 83.0072C140.597 85.5223 142.646 87.559 145.177 87.559C147.713 87.559 149.75 85.5136 149.75 83.0072C149.75 80.4834 147.69 78.4535 145.177 78.4535ZM145.167 79.2142C147.282 79.2142 148.995 80.9025 148.995 83.0072C148.995 85.0983 147.282 86.806 145.167 86.806C143.058 86.806 141.352 85.0983 141.352 83.0072C141.352 80.9025 143.058 79.2142 145.167 79.2142Z" fill="white"/>
<path d="M37.2141 33.5677C38.393 35.236 40.7459 32.4613 40.5388 31.9463C40.3323 31.4329 36.0459 31.9029 37.2141 33.5677Z" fill="white"/>
<path d="M46.5163 22.8462C52.7188 22.8462 57.7461 17.8365 57.7461 11.6712C57.7461 5.50213 52.7188 0.5 46.5163 0.5C40.3138 0.5 35.2847 5.50213 35.2847 11.6712C35.2847 17.8365 40.3138 22.8462 46.5163 22.8462ZM46.8227 3.10803C50.9343 3.10803 54.266 6.42561 54.266 10.515C54.266 14.6062 50.9343 17.9201 46.8227 17.9201C42.7093 17.9201 39.368 14.6062 39.368 10.515C39.368 6.42561 42.7093 3.10803 46.8227 3.10803Z" fill="white"/>
<path d="M102.916 42.5782C101.404 35.5085 95.2585 35.2896 91.9782 35.5394C88.603 35.7964 82.1945 36.7988 75.6315 36.7988C66.7272 36.7988 56.7686 34.3089 49.109 30.7705C47.7832 30.1581 48.4426 29.9026 49.0459 29.5768C51.917 28.0263 54.417 26.5864 55.9354 24.1289C57.0977 22.2472 56.6537 21.642 55.3696 22.698C51.8959 25.5546 46.9591 27.1526 41.4317 25.1965C35.9042 23.2404 33.764 17.9433 33.2727 16.6076C32.7872 15.2736 32.0955 15.1751 32.0955 17.1308C32.0955 22.0632 34.2921 25.0518 35.0242 25.9046C35.7591 26.7531 36.0988 27.593 35.6925 28.0834C34.6135 29.3854 33.4256 30.777 33.3807 31.336C33.3337 31.9216 33.3892 32.2444 33.1497 32.9365C32.9102 33.6286 32.0155 34.6119 30.6587 36.3135C29.8851 37.2891 30.3578 38.3163 31.0098 39.0363C31.7964 39.8966 32.2973 40.8886 33.2564 41.3352C34.2154 41.7819 35.1124 41.4517 36.23 41.6569C37.3298 41.8589 38.7125 42.5001 39.7982 44.4335C41.368 47.238 43.085 51.6091 46.1427 55.2479C47.5085 56.8646 47.5027 59.7828 47.5085 60.7675C47.5965 69.2569 43.1078 77.2899 40.2554 82.3813C39.5792 83.5907 39.7164 84.5873 40.6272 84.595C41.6653 84.6062 45.5566 84.595 46.1814 84.595C46.9284 84.595 47.3386 83.8153 47.3929 83.0186C47.8654 76.0822 51.82 63.3239 54.8114 61.1444C59.8246 64.2466 64.7996 70.922 62.3641 82.5632C62.2328 83.1909 61.6457 84.5985 63.1397 84.5985C63.1397 84.5985 67.3662 84.5985 67.9572 84.5985C68.5682 84.5985 69.568 84.3593 69.5064 83.2431C69.2551 78.6865 65.4334 69.0881 64.4221 63.4239C63.7829 59.8441 66.6531 53.4742 77.4545 58.365C81.6317 54.6723 87.0604 56.9193 84.7413 64.0453C82.4456 71.0998 80.4529 74.2551 72.5808 82.5767C71.6784 83.5307 71.6315 84.6043 73.0499 84.6043C73.7568 84.6043 77.3776 84.5985 78.1062 84.5985C79.1907 84.5985 79.6264 84.2967 79.9615 83.4253C80.2966 82.554 83.8763 71.2201 90.9532 65.926C91.5003 65.5167 91.9711 63.6986 93.0679 59.5927C96.5107 64.0403 96.9301 72.1829 91.0963 82.6529C90.4867 83.7422 90.8675 84.595 91.5631 84.595C91.9726 84.595 95.1579 84.595 96.1453 84.595C96.9991 84.595 97.2453 84.1343 97.5783 82.864C97.9858 81.3091 98.1367 80.5468 98.678 79.0304C99.0137 78.09 99.1689 77.9386 102.794 77.9768C103.952 77.989 103.898 77.3722 103.898 76.4062C103.898 62.2333 103.987 47.5878 102.916 42.5782ZM90.024 37.8925C91.2108 40.0536 91.2751 41.3189 90.9352 42.4013C90.5952 43.4837 89.0825 44.0928 88.7509 43.9776C88.7109 41.6587 88.0823 39.8988 86.9859 38.3083C87.9971 38.1561 89.0095 38.0055 90.024 37.8925ZM80.632 39.0151C81.3176 41.5693 81.2323 44.9264 80.2649 45.9038C78.7386 47.4463 71.8251 47.1345 69.8348 46.8355C69.3221 46.7586 68.7318 46.6606 68.475 45.2711C68.1689 43.6177 68.0977 40.6043 68.0024 38.5982C72.1859 39.1433 76.4217 39.283 80.632 39.0151ZM56.0378 43.8717C56.6024 42.0076 57.1824 38.8827 57.4835 36.3334C58.8231 36.7397 60.1752 37.1043 61.5382 37.4233C60.6211 43.2449 58.7887 44.8829 57.821 45.2692C57.0764 45.5664 55.4732 45.7358 56.0378 43.8717ZM43.6713 46.9357C42.4918 45.3924 40.9596 41.6649 39.6317 40.6222C37.082 38.6183 34.879 40.1882 33.8779 38.9971C32.8123 37.7218 32.3765 37.6264 33.3723 36.4115C33.3723 36.4115 34.4935 34.9217 34.9625 34.2923C35.4315 33.6629 35.3434 32.4472 35.5318 31.9226C35.7182 31.4002 36.885 29.8673 38.0274 28.877C39.2899 27.7828 40.328 28.2638 44.3001 30.6499C49.1254 33.5486 50.6003 32.9212 48.9474 35.5225C47.9028 37.1663 44.502 41.5533 43.6713 46.9357ZM96.7661 45.1618C96.4987 49.5146 95.5285 55.6664 94.0231 56.3288C92.5176 56.9912 90.1761 52.9938 77.943 52.7755C69.2552 52.6205 62.5803 53.7614 61.3542 61.6447C61.2649 62.2186 60.9312 62.1096 60.6854 61.8445C58.3004 59.2721 56.129 58.1265 52.6128 56.0899C49.0964 54.0533 46.7466 51.2665 46.3095 48.5415C45.8725 45.8164 46.859 42.1508 51.8307 35.4624C52.5208 34.534 52.6456 34.6191 55.4197 35.6652C55.2072 40.1336 54.102 42.6464 53.6376 44.9545C53.1663 47.2966 55.786 47.8028 58.0871 47.2631C60.3882 46.7235 62.5771 44.3134 63.5417 37.8589C64.4445 38.042 65.1613 38.1715 66.0712 38.3164C66.2029 45.0094 66.5964 46.5386 66.871 47.1651C67.4111 48.3974 68.6594 48.8043 69.6733 48.8841C74.9702 49.3009 80.0915 49.1279 81.9251 47.3484C83.7587 45.569 83.1259 41.2209 82.6226 38.8575C83.451 38.78 84.1588 38.7035 84.9837 38.594C86.7055 40.6109 86.9449 42.7762 86.9449 44.1914C86.9449 45.7274 88.6511 46.5223 91.0489 44.8828C93.4468 43.2432 93.1786 40.359 91.896 37.7392C97.3259 37.25 97.0336 40.809 96.7661 45.1618ZM100.796 66.5188C100.713 67.1541 100.094 67.6725 99.9449 66.3559C99.7532 64.6634 98.8727 60.8083 98.5879 59.1882C98.321 57.6701 99.138 53.0371 99.4359 49.1914C99.4616 48.8599 99.84 48.8706 100.07 49.1118C101.718 50.8378 101.139 63.8988 100.796 66.5188Z" fill="white"/>
</svg>
