<svg width="92" height="90" viewBox="0 0 92 90" fill="none" xmlns="http://www.w3.org/2000/svg">
<circle cx="47" cy="45" r="44" fill="white" stroke="#001965" stroke-width="2"/>
<path d="M42.52 61H38.32L23.04 37.28H22.88C22.9333 38.2133 23 39.3733 23.08 40.76C23.16 42.1467 23.2 43.5733 23.2 45.04V61H19.88V32.44H24.04L39.28 56.08H39.44C39.4133 55.6533 39.3733 55.0133 39.32 54.16C39.2933 53.3067 39.2533 52.3867 39.2 51.4C39.1733 50.3867 39.16 49.44 39.16 48.56V32.44H42.52V61ZM72.9106 61H68.7106L53.4306 37.28H53.2706C53.324 38.2133 53.3906 39.3733 53.4706 40.76C53.5506 42.1467 53.5906 43.5733 53.5906 45.04V61H50.2706V32.44H54.4306L69.6706 56.08H69.8306C69.804 55.6533 69.764 55.0133 69.7106 54.16C69.684 53.3067 69.644 52.3867 69.5906 51.4C69.564 50.3867 69.5506 49.44 69.5506 48.56V32.44H72.9106V61Z" fill="#001965"/>
</svg>
