<svg width="55" height="55" viewBox="0 0 55 55" fill="none" xmlns="http://www.w3.org/2000/svg">
<circle cx="27.5" cy="27.5" r="27.5" fill="#FFD5D5"/>
<path d="M27.7228 31.439C26.6321 31.439 25.5415 32.499 25.5415 33.8239C25.5415 35.1489 26.6579 36.2088 27.7228 36.2088C28.8135 36.2088 29.9041 35.1489 29.9041 33.8239C29.9041 32.499 28.8135 31.439 27.7228 31.439Z" fill="#E6553F"/>
<path d="M26.2603 27.4642C25.6157 26.9342 24.1781 18.1895 24.9961 17.3946C25.8141 16.5996 29.6315 16.5996 30.4495 17.3946C31.2675 18.1895 30.0776 26.9342 29.6315 27.4642C29.1853 27.9941 26.9048 27.9941 26.2603 27.4642Z" fill="#E6553F"/>
<path d="M27.7228 31.439C26.6321 31.439 25.5415 32.499 25.5415 33.8239C25.5415 35.1489 26.6579 36.2088 27.7228 36.2088C28.8135 36.2088 29.9041 35.1489 29.9041 33.8239C29.9041 32.499 28.8135 31.439 27.7228 31.439Z" stroke="#E6553F" stroke-width="3" stroke-linecap="round" stroke-linejoin="round"/>
<path d="M26.2603 27.4642C25.6157 26.9342 24.1781 18.1895 24.9961 17.3946C25.8141 16.5996 29.6315 16.5996 30.4495 17.3946C31.2675 18.1895 30.0776 26.9342 29.6315 27.4642C29.1853 27.9941 26.9048 27.9941 26.2603 27.4642Z" stroke="#E6553F" stroke-width="3" stroke-linecap="round" stroke-linejoin="round"/>
</svg>
