<svg width="45" height="39" viewBox="0 0 45 39" fill="none" xmlns="http://www.w3.org/2000/svg">
<path d="M22.7228 27.439C21.6321 27.439 20.5415 28.499 20.5415 29.8239C20.5415 31.1489 21.6579 32.2088 22.7228 32.2088C23.8135 32.2088 24.9041 31.1489 24.9041 29.8239C24.9041 28.499 23.8135 27.439 22.7228 27.439Z" fill="#E6553F"/>
<path d="M21.2603 23.4642C20.6157 22.9342 19.1781 14.1895 19.9961 13.3946C20.8141 12.5996 24.6315 12.5996 25.4495 13.3946C26.2675 14.1895 25.0776 22.9342 24.6315 23.4642C24.1853 23.9941 21.9048 23.9941 21.2603 23.4642Z" fill="#E6553F"/>
<path d="M22.7228 27.439C21.6321 27.439 20.5415 28.499 20.5415 29.8239C20.5415 31.1489 21.6579 32.2088 22.7228 32.2088C23.8135 32.2088 24.9041 31.1489 24.9041 29.8239C24.9041 28.499 23.8135 27.439 22.7228 27.439Z" stroke="#E6553F" stroke-width="3" stroke-linecap="round" stroke-linejoin="round"/>
<path d="M21.2603 23.4642C20.6157 22.9342 19.1781 14.1895 19.9961 13.3946C20.8141 12.5996 24.6315 12.5996 25.4495 13.3946C26.2675 14.1895 25.0776 22.9342 24.6315 23.4642C24.1853 23.9941 21.9048 23.9941 21.2603 23.4642Z" stroke="#E6553F" stroke-width="3" stroke-linecap="round" stroke-linejoin="round"/>
</svg>
